<svg xmlns="http://www.w3.org/2000/svg" width="80" height="80" viewBox="0 0 80 80" style="--hm-bottom:#000000;--hm-clothes:#FFFFFF;--hm-hair:#000000;--hm-skin:#FFFFFF;--hm-stroke:#000000"><g transform="translate(0, 0)"><g transform="scale(0.078125)"><path fill="#010101" d="M400.41,225.84l5.18,40.13c-13.34,15.36,0,25.9,0,25.9,0,0,14.75,4.21,25.28,4.92s15.06-7.07,17.56-14.75c-1.4,25.98,33.01,25.28,33.01,25.28,0,0,32.33,1.67,47.07-2.68,4.07,10.44,24.53,9.7,24.53,9.7,49.12.7,81.51-7.02,81.51-7.02,27.15-9.05,42.99-24.86,49.84-43.76l-.22,1.26c6.67,1.06,29.85-4.57,29.85-4.57,0,0,29.78-5.38,55.37-35.11,30.2-35.09,23.84-89.19,18.96-105.32-2.76-9.12-16.76-12.68-20.77-8.73-9.61,9.49-6.07,14.96-4.51,53.84,2.59,64.76-74.63,75.5-74.63,75.5l-.02.09c.3-25.97-12.13-54.56-32.8-78.56-43.54-50.56-102.57-7.7-102.57-7.7-3.38-6.76-6.49-10.89-6.49-10.89,2.47-27.14-3.2-41.81-7.89-49.06-2.99-4.62-9.07-6.15-13.82-3.37-13.2,7.74-27.49,29.16-27.49,29.16-10.64-5.32-49.86-1.99-49.86-1.99-9.16-16.03-21.79-24.17-28.77-27.69-3.96-2-8.83-.9-11.43,2.69-10.28,14.22-4.35,50.26-4.35,50.26-32.57,43.92-20.21,68.9-2.52,82.48,0,0-4.65,25.47,5.18,40.13"/>
  <path fill="var(--hm-stroke, #000000)" d="M453.86,158.29c-.26,0-.53,0-.8-.04-4.12-.44-7.11-4.13-6.67-8.25l3.16-29.87c.44-4.12,4.13-7.11,8.25-6.67s7.11,4.13,6.67,8.25l-3.16,29.87c-.41,3.85-3.66,6.71-7.45,6.71h0Z"/>
  <path fill="var(--hm-stroke, #000000)" d="M479.94,158.29c-.26,0-.53,0-.8-.04-4.12-.44-7.11-4.13-6.67-8.25l3.16-29.87c.44-4.12,4.12-7.11,8.25-6.67,4.12.44,7.11,4.13,6.67,8.25l-3.16,29.87c-.41,3.85-3.66,6.71-7.45,6.71h0Z"/>
  <path fill="var(--hm-stroke, #000000)" d="M432.86,250.43c-.63,0-1.27-.06-1.91-.19-1.74-.34-42.77-8.63-54.98-40.06-7.67-19.74-2.11-43.09,16.51-69.43-.48-3.9-1.09-10.1-1.22-17.01-.31-16.76,2.29-28.7,7.92-36.5,5.49-7.59,15.6-10.01,24.03-5.76,6.98,3.52,19.46,11.38,29.54,26.2,10.59-.69,28.35-1.33,40.51.9,5.65-7.56,15.98-20.1,26.5-26.27,9.37-5.49,21.35-2.61,27.28,6.57,5.55,8.59,11.61,24.46,9.74,51.77,3.89,6.04,11.6,19.72,13.94,36.43,3.68,26.18-10.97,51.96-35.63,62.68-13.92,6.05-24.6,9.61-31.75,10.59-5.47.75-10.51-3.08-11.26-8.56-.75-5.47,3.08-10.51,8.56-11.26,3-.41,10.44-2.14,26.48-9.11,16.45-7.15,26.23-24.24,23.8-41.55-2.38-16.9-12.29-30.36-12.39-30.49-1.47-1.98-2.18-4.45-1.96-6.9,2.28-25.13-2.98-37.56-6.33-42.73-.11-.17-.29-.22-.37-.17-9.16,5.37-20.59,20.65-24.23,26.09-2.8,4.19-8.28,5.64-12.79,3.39-4.32-2.16-25.14-2.61-44.55-.97-3.88.33-7.6-1.62-9.53-5-7.61-13.31-17.96-20.26-23.89-23.36-4.85,8.08-4.2,29.18-2.1,42.05.43,2.67-.23,5.4-1.84,7.57-16.17,21.8-21.68,39.82-16.38,53.56,8.15,21.14,39.87,27.67,40.19,27.74,5.41,1.08,8.94,6.33,7.87,11.74-.94,4.77-5.11,8.08-9.79,8.08l.03-.04Z"/>
  <path fill="var(--hm-stroke, #000000)" d="M559.39,324.39c-2.07,0-4.16-.01-6.3-.04-1.32.03-6.25.06-11.88-.96-10.14-1.84-17.14-6.06-20.82-12.54-4.54-8.01-3.22-17.65,3.92-28.63,22.24-34.21,77.37-16.05,79.71-15.26,5.23,1.77,8.04,7.44,6.27,12.68-1.77,5.23-7.44,8.04-12.68,6.27-.41-.14-42.96-13.66-56.53,7.21-3.67,5.65-3.28,7.9-3.27,7.92.99,1.61,8.18,3.53,14.87,3.32h.48c44.26.63,74.86-5.82,78.66-6.66,24.13-8.16,39.09-22.15,44.45-41.61,7.06-25.6-3.77-59.16-28.25-87.6-36.9-42.86-87.02-7.64-89.14-6.12-4.48,3.22-10.72,2.21-13.95-2.26-3.23-4.47-2.24-10.7,2.22-13.94.67-.49,16.71-12,38.71-16.79,30.24-6.58,56.97,2.43,77.32,26.06,29.21,33.93,41.32,73.54,32.38,105.97-5,18.15-19.11,42.5-57.86,55.42-.28.09-.56.17-.84.24-1.31.31-31.34,7.34-77.46,7.34v-.02Z"/>
  <path fill="var(--hm-stroke, #000000)" d="M589.05,283.43c-3.63,0-7.13-1.98-8.89-5.44-.5-.98-12.15-24.23-3.61-45,4.73-11.5,14.3-19.69,28.44-24.35,5.24-1.73,10.9,1.12,12.63,6.37s-1.12,10.9-6.37,12.63c-8.43,2.78-13.72,7-16.17,12.9-4.21,10.12.68,23.93,2.92,28.4,2.47,4.92.5,10.93-4.42,13.42-1.45.73-3,1.08-4.52,1.08h-.01Z"/>
  <path fill="var(--hm-stroke, #000000)" d="M495.69,317.66c-7.04,0-12.61-.24-14.44-.33-3.65.04-22.95-.44-34.52-12.41-5.91-6.11-8.77-14.21-8.28-23.42.42-7.69,3.83-14.11,9.86-18.55,16.93-12.46,50.16-4.89,56.65-3.24,5.35,1.36,8.59,6.8,7.24,12.15-1.36,5.35-6.8,8.59-12.15,7.24-12.01-3.02-32.99-5.12-39.89-.03-1.02.75-1.64,1.57-1.74,3.52-.26,4.78,1.39,7.09,2.66,8.41,5.11,5.32,16.59,6.38,20.2,6.34.21,0,.47,0,.68.01,8.53.44,33,.88,43.72-2.28,5.3-1.57,10.86,1.47,12.42,6.76,1.56,5.3-1.47,10.86-6.76,12.42-9.52,2.81-24.45,3.42-35.65,3.42h0Z"/>
  <path fill="var(--hm-stroke, #000000)" d="M432.24,306.83c-.69,0-1.37-.02-2.03-.07-11.46-.76-26.72-5.09-27.36-5.28-1.25-.36-2.43-.96-3.45-1.77-.88-.69-8.61-7.09-9.63-17.88-.5-5.31.53-13.51,8.27-22.42,7.71-8.87,15.69-11.17,21.03-11.54,9.28-.64,16.16,3.97,18.39,5.7,9.64,6.39,24.66,18.74,20.48,31.56-5.75,17.63-16.76,21.7-25.7,21.7h0ZM410.79,282.92c4.4,1.15,13.8,3.43,20.75,3.89,1.94.13,4.3.29,6.75-6.06-1.8-2.63-7.2-7.42-12.2-10.72-.49-.32-.64-.4-1.03-.77-3.61-2.78-7.62-1.68-11.91,3.27-1.41,1.62-5.42,6.24-2.35,10.39h0ZM424.99,269.2h0Z"/>
  <path fill="var(--hm-stroke, #000000)" d="M405.6,275.98c-3.22,0-6.39-1.55-8.31-4.43-11.75-17.53-7.26-44.48-6.71-47.5.99-5.43,6.19-9.03,11.63-8.04,5.43.99,9.02,6.19,8.04,11.61h0c-1.07,6.01-2.51,23.61,3.65,32.79,3.08,4.59,1.85,10.8-2.74,13.88-1.71,1.15-3.65,1.7-5.56,1.7h0Z"/>
  <path fill="var(--hm-stroke, #000000)" d="M686.03,274.93c-1.29,0-2.45-.07-3.45-.23-5.45-.87-9.17-5.99-8.3-11.45.87-5.45,6-9.17,11.45-8.3,2.81.31,14.96-1.75,25.91-4.41.19-.05.39-.09.58-.12.02,0,6.77-1.32,16.25-5.92,8.66-4.2,21.46-12.1,33.32-25.88,28.25-32.82,20.57-83.99,16.97-95.9-.45-1.47-3.52-2.93-5.46-3.19-2.48,2.76-2.63,5.27-1.52,22.22.39,5.99.88,13.44,1.25,22.79,1.22,30.46-13.1,55.06-41.4,71.13-20.41,11.59-40.98,14.56-41.85,14.68-5.46.76-10.52-3.06-11.28-8.53s3.05-10.52,8.52-11.28c.47-.07,18.24-2.75,35.2-12.52,21.36-12.3,31.73-30.03,30.83-52.68-.36-9.1-.84-16.41-1.23-22.28-1.33-20.24-1.87-28.62,8.7-39.07,4.29-4.23,11.08-5.56,18.63-3.64,7.19,1.83,15.88,7.14,18.74,16.58,5.25,17.35,12.66,75.67-20.95,114.74-26.37,30.64-56.97,37.59-60.82,38.36-6.7,1.62-21.34,4.91-30.11,4.91h.02Z"/>
  <circle fill="#FFFFFF" cx="432.67" cy="180.7" r="10.53"/>
  <circle fill="#FFFFFF" cx="492.04" cy="180.7" r="10.53"/></g></g></svg>