<svg xmlns="http://www.w3.org/2000/svg" width="88" height="88" viewBox="-4 -4.5 88 88" style="--hm-bottom:#000000;--hm-clothes:#FFFFFF;--hm-hair:#000000;--hm-skin:#FFFFFF;--hm-stroke:#000000"><rect x="-4" y="-4.5" width="88" height="88" fill="#F6F5F4" /><g data-hm-layer-slot="bottom" data-hm-part-id="hm1-p-000037" data-hm-selection-slot="bottom" data-hm-source-group-id="bottom" data-hm-source-part-id="005" transform="translate(0, 85)">
<path d="M51.188 90.4502C50.3787 92.2899 48.8813 93.737 47.016 94.4819C45.152 95.2269 43.0707 95.2108 41.2187 94.4352L41.108 94.3898C40.3187 96.6593 39.1427 98.802 38.6453 101.152C38.568 101.511 38.512 101.905 38.684 102.23C38.9307 102.696 39.5253 102.827 40.0467 102.898C41.8533 103.165 43.7293 103.385 45.4787 102.862C48.4 101.994 50.4 99.1558 51.1627 96.1987C51.7213 94.0414 51.7467 91.8026 51.6533 89.5651L51.188 90.4502Z" fill="#000000"/>
<path d="M36.6134 89.6839C35.472 90.8214 34.0814 91.6771 32.5534 92.1844C31.0254 92.6917 29.4 92.8372 27.8054 92.6076C27.3067 92.5529 26.824 92.3993 26.3867 92.1537C25.9614 91.8867 25.6174 91.4582 25.5667 90.9602V90.4743C23.7694 91.9962 21.9587 93.4887 21.348 95.6941C21.2267 96.1347 21.164 96.6206 21.356 97.0291C21.72 97.8101 22.752 97.9436 23.612 97.9636C25.8707 98.0344 28.1614 98.0971 30.3574 97.5711C32.5534 97.0451 34.684 95.8276 35.824 93.8745C36.7307 92.3246 36.936 90.4743 37.1067 88.6867L36.6134 89.6839Z" fill="#000000"/>
<path d="M28.5333 40.094C28.8 46.9159 29.5027 66.8541 29.876 76.8506L30.4187 77.0348C31.6187 77.2751 32.8893 77.5515 34.2853 77.5288C35.5867 77.5074 36.9213 77.183 37.948 76.382L38.016 76.2058C38.532 67.005 39.0213 56.122 39.5547 48.8717C39.6653 47.3658 39.688 41.6934 39.808 40.5479" fill="var(--hm-skin, #FFFFFF)"/>
<path d="M39.6693 40.3985C40.0866 47.7303 40.9333 65.8289 41.3333 77.7918L42.3026 78.7463C42.9373 79.259 43.6706 79.6341 44.4573 79.8464C45.244 80.0586 46.0666 80.1054 46.872 79.9825C47.6773 79.8597 48.4493 79.5687 49.1373 79.1308C49.8253 78.6929 50.4133 78.1162 50.8666 77.4367L51.26 76.7332C51.0666 64.4805 51.1586 46.8852 51.3333 39.5788" fill="var(--hm-skin, #FFFFFF)"/>
<path d="M41.268 94.4272C43.12 95.2015 45.2013 95.2189 47.0653 94.474C48.9293 93.729 50.4267 92.2819 51.2373 90.4423L51.704 89.6293C51.6693 88.7749 51.6173 87.9204 51.5707 87.0714C51.4373 84.5709 51.332 80.9304 51.2667 76.7332L50.8733 77.4367C50.4213 78.1162 49.832 78.6929 49.144 79.1308C48.456 79.5687 47.6853 79.8584 46.88 79.9825C46.0747 80.1054 45.252 80.06 44.4653 79.8464C43.6787 79.6341 42.944 79.259 42.3107 78.7463L41.3347 77.7918C41.452 81.2628 41.5333 84.2719 41.556 86.4066C41.5787 88.5679 42.12 90.7547 41.6093 92.8546C41.484 93.3713 41.328 93.8786 41.1533 94.3805L41.268 94.4272Z" fill="#FFFFFF"/>
<path d="M25.6147 90.9522C25.6654 91.4502 26.0147 91.8867 26.436 92.1457C26.8734 92.3913 27.3547 92.5449 27.8534 92.5996C29.448 92.8292 31.0747 92.685 32.604 92.1777C34.1334 91.6704 35.524 90.8134 36.6667 89.676L37.16 88.6881C37.46 85.5455 37.7427 81.1146 38.0174 76.2058L37.9494 76.382C36.9227 77.183 35.588 77.5074 34.2867 77.5288C32.9854 77.5502 31.6974 77.2912 30.42 77.0348L29.8774 76.8506C29.9307 78.3018 29.9787 79.5567 30.0187 80.5472C30.092 82.4162 30.152 84.368 29.4134 86.0901C28.6374 87.8964 27.0934 89.2167 25.5467 90.5237L25.6147 90.9522Z" fill="#FFFFFF"/>
<path d="M26.788 7.46265C24.1054 17.8623 21.82 28.3541 19.9333 38.9393C33.1787 41.5519 46.8267 41.3142 59.972 38.2424C58.0347 28.0096 56.1014 17.7769 54.1707 7.54408" fill="var(--hm-bottom, #000000)"/>
<path d="M43.136 103.97C42.0733 103.97 41.0093 103.834 39.98 103.681C39.5413 103.621 38.4933 103.48 38.0267 102.596C37.6987 101.982 37.8427 101.304 37.912 100.977C38.2453 99.4081 38.8613 97.937 39.456 96.5138C40.0027 95.2055 40.52 93.9707 40.8373 92.6664C41.148 91.3901 41.028 90.0484 40.9 88.6293C40.836 87.9084 40.768 87.1635 40.7613 86.4159C40.6613 76.872 39.3747 49.8796 38.872 40.9498C38.8467 40.5079 39.184 40.1301 39.6253 40.1048C40.0667 40.0794 40.444 40.4172 40.4693 40.859C40.9733 49.8009 42.26 76.8306 42.3613 86.3986C42.368 87.0821 42.4293 87.7643 42.4947 88.4852C42.628 89.9724 42.7653 91.5103 42.392 93.0442C42.0453 94.4713 41.48 95.8237 40.932 97.132C40.3387 98.5497 39.7787 99.8887 39.4773 101.309C39.4013 101.667 39.416 101.796 39.44 101.843C39.4667 101.894 39.5907 102.011 40.2053 102.094C41.9947 102.358 43.7227 102.555 45.3013 102.083C48.144 101.233 49.8187 98.3748 50.4387 95.9825C51.1333 93.3032 50.964 90.3995 50.8013 87.5934L50.7733 87.1101C50.2373 77.5034 50.2973 50.1533 50.532 40.1275C50.5427 39.6856 50.912 39.3318 51.3507 39.3451C51.792 39.3558 52.1427 39.7229 52.132 40.1648C51.8987 50.1707 51.8373 77.4514 52.3707 87.0193L52.3987 87.4999C52.5693 90.4316 52.7453 93.462 51.988 96.3857C51.2587 99.1999 49.2387 102.577 45.76 103.619C44.8987 103.875 44.0173 103.97 43.136 103.97Z" fill="var(--hm-stroke, #000000)"/>
<path d="M38.344 41.5372C32.12 41.5372 25.8827 40.9285 19.7787 39.7256C19.3507 39.6415 19.0693 39.229 19.1453 38.7991C21.0267 28.2433 23.3373 17.634 26.0133 7.26242C26.124 6.83389 26.56 6.57623 26.988 6.68704C27.416 6.79784 27.6733 7.23439 27.5627 7.66292C24.9627 17.7395 22.7093 28.0444 20.86 38.3025C27.1507 39.488 33.5787 40.0327 39.976 39.9219C46.3813 39.8111 52.792 39.0408 59.0427 37.635C57.1787 27.784 55.2747 17.7155 53.3853 7.69363C53.3027 7.25842 53.5893 6.84056 54.0227 6.75779C54.4573 6.67502 54.8747 6.96205 54.9573 7.39592C56.896 17.6741 58.848 28.0016 60.7587 38.0942C60.8387 38.5161 60.572 38.926 60.1547 39.0234C53.5573 40.5653 46.7787 41.4064 40.004 41.5239C39.4507 41.5332 38.8973 41.5372 38.344 41.5372Z" fill="var(--hm-stroke, #000000)"/>
<path d="M45.988 80.8516C45.4053 80.8516 44.8253 80.7742 44.2547 80.6207C43.3547 80.3777 42.532 79.9572 41.8053 79.3711C41.4613 79.0934 41.408 78.5888 41.6853 78.2444C41.9627 77.8999 42.4667 77.8465 42.8107 78.1242C43.3627 78.5701 43.988 78.8892 44.672 79.0747C45.356 79.259 46.0573 79.299 46.7573 79.1922C47.4573 79.0854 48.116 78.8384 48.7133 78.4566C49.3107 78.0762 49.8133 77.5835 50.2067 76.9935C50.452 76.625 50.9493 76.5262 51.316 76.7719C51.684 77.0175 51.7827 77.5155 51.5373 77.8826C51.02 78.6582 50.3587 79.307 49.572 79.8077C48.7853 80.3083 47.92 80.634 46.9987 80.7755C46.6613 80.8249 46.324 80.8516 45.988 80.8516Z" fill="var(--hm-stroke, #000000)"/>
<path d="M34.1307 78.3258C32.804 78.3258 31.5147 78.0668 30.2667 77.8171C29.8333 77.7304 29.5493 77.3072 29.636 76.8733C29.7227 76.4394 30.1413 76.1564 30.5733 76.2445L30.5813 76.2458C31.8547 76.5008 33.0587 76.7425 34.2693 76.7224C35.1693 76.7078 36.452 76.5262 37.4533 75.7452C37.8013 75.4729 38.304 75.5356 38.576 75.8841C38.848 76.2325 38.7853 76.7358 38.4373 77.0081C37.0867 78.0614 35.44 78.3057 34.296 78.3244C34.2413 78.3258 34.1853 78.3258 34.1307 78.3258Z" fill="var(--hm-stroke, #000000)"/>
<path d="M44.2227 95.825C43.116 95.825 42.0093 95.6047 40.96 95.1655C40.552 94.9946 40.36 94.526 40.5307 94.1175C40.7013 93.709 41.1693 93.5168 41.5773 93.6877C43.2453 94.3859 45.0893 94.4005 46.7693 93.729C48.4493 93.0575 49.776 91.7759 50.5053 90.1192C50.684 89.7147 51.156 89.5318 51.56 89.7094C51.964 89.8882 52.148 90.3608 51.9693 90.7653C51.0693 92.8079 49.4333 94.3899 47.3627 95.2176C46.348 95.6234 45.2853 95.825 44.2227 95.825Z" fill="var(--hm-stroke, #000000)"/>
<path d="M25.948 98.81C25.172 98.81 24.4013 98.786 23.6387 98.7633C22.9987 98.7419 21.3027 98.6872 20.684 97.3602C20.44 96.8409 20.4227 96.2228 20.6293 95.4725C21.292 93.0789 23.1653 91.4929 24.976 89.959C26.5133 88.6573 27.9667 87.4278 28.6773 85.7724C29.36 84.1811 29.284 82.2667 29.2187 80.5779C29.0547 76.5062 28.7453 67.9341 28.4467 59.6438C28.1653 51.8367 27.9 44.4635 27.752 40.7215C27.7347 40.2796 28.0787 39.9071 28.52 39.8898C28.9573 39.8764 29.3333 40.2169 29.3507 40.6587C29.4987 44.4034 29.7653 51.778 30.0467 59.5864C30.3453 67.8741 30.6547 76.4448 30.8173 80.5152C30.8907 82.3748 30.9733 84.4815 30.148 86.4065C29.288 88.4077 27.6213 89.8188 26.0093 91.1832C24.308 92.6236 22.7013 93.9827 22.1707 95.8997C22.0467 96.3483 22.0813 96.5726 22.132 96.6807C22.2693 96.9757 22.7787 97.1319 23.688 97.1613C25.86 97.228 28.1067 97.2975 30.22 96.7835C32.46 96.2388 34.2693 95.028 35.1853 93.4607C35.9747 92.1096 36.1853 90.4609 36.3613 88.6013C36.8427 83.5416 37.288 74.9909 37.7187 66.722C38.156 58.3301 38.608 49.6526 39.0933 44.7906C39.1373 44.35 39.528 44.031 39.9693 44.0737C40.4093 44.1177 40.7293 44.5102 40.6853 44.9508C40.204 49.7741 39.7533 58.4329 39.316 66.8061C38.884 75.0924 38.4373 83.6604 37.9533 88.7535C37.7587 90.804 37.52 92.6356 36.5667 94.2697C35.416 96.2388 33.296 97.6846 30.5987 98.3401C29.0533 98.7166 27.492 98.81 25.948 98.81Z" fill="var(--hm-stroke, #000000)"/>
<path d="M29.324 93.5061C28.7987 93.5061 28.272 93.4687 27.752 93.3953C27.1493 93.3272 26.5747 93.143 26.044 92.8453C26.0347 92.8399 26.0253 92.8346 26.016 92.8292C25.3373 92.4127 24.8893 91.7412 24.8173 91.0337C24.772 90.5931 25.092 90.2006 25.532 90.1552C25.9707 90.1098 26.364 90.4302 26.4093 90.8708C26.4307 91.0737 26.5987 91.302 26.84 91.4555C27.1813 91.6438 27.5507 91.7612 27.9387 91.804C27.948 91.8053 27.9573 91.8066 27.9653 91.808C29.4307 92.0189 30.9467 91.8841 32.3507 91.4181C33.7547 90.9522 35.052 90.1539 36.1 89.1099C36.4133 88.7975 36.92 88.7989 37.232 89.1126C37.544 89.4263 37.5427 89.9336 37.2293 90.246C36.0053 91.4649 34.492 92.3967 32.8547 92.94C31.72 93.3138 30.5213 93.5061 29.324 93.5061Z" fill="var(--hm-stroke, #000000)"/>
</g><g data-hm-layer-slot="body" data-hm-part-id="hm1-p-000028" data-hm-selection-slot="body" data-hm-source-group-id="body" data-hm-source-part-id="004" transform="translate(0, 51)">
<path d="M45.2493 0C45.3693 1.34667 45.92 4.38933 47.9693 3.93333L48.1893 4.26667C48.0893 6.356 47.0306 7.82933 45.372 9.356C43.6866 10.8827 41.5373 11.8 39.2693 11.9613C37.2693 12.108 35.1426 11.6293 33.6466 10.288C32.1506 8.94667 31.364 7.088 32.3546 5.49467H32.4986C32.9493 5.508 33.364 5.272 33.7453 5.032C34.2306 4.72533 34.644 3.348 34.944 2.98667C35.344 2.468 36.0933 0.621333 36.2986 0H45.2493V0Z" fill="var(--hm-skin, #FFFFFF)"/>
<path d="M58.9773 37.1813C61.9307 46.3253 63.9853 53.3387 66.684 62.164C66.8173 62.6147 67.3507 64.208 67.104 64.6067C66.9387 64.8733 66.6613 65.044 66.3907 65.1973C64.9107 66.0387 63.2947 66.1093 61.6253 66.4453L55.4293 67.6787C46.5613 69.2693 37.6613 69.6587 28.7773 68.16L27.1013 67.964L21.368 66.8667C20.8507 66.768 20.2827 66.636 19.98 66.2C19.7294 65.8427 19.7307 65.372 19.7493 64.936C19.8253 63.2027 20.0253 61.4827 20.2253 59.7613L21.8027 46.1613C22.4787 40.3347 23.156 34.4987 24.0773 28.708L24.0133 28.688C22.4627 28.1547 20.936 27.5627 19.408 26.9693C19.1973 26.9093 19.008 26.792 18.8587 26.632C18.5587 26.2453 18.816 25.6907 19.0733 25.2733C21.3453 21.58 23.288 17.6947 24.8813 13.6613C26.0973 10.5813 27.3667 7.116 30.3347 5.648L36.5373 6.356L48.208 3.2C50.2493 3.74667 51.924 5.21067 53.2987 6.81733C55.036 8.848 56.4133 11.1613 57.3733 13.656C59.4973 19.18 59.4987 25.4067 62.06 30.7427C60.8453 31.1027 59.612 31.392 58.3653 31.612L58.9773 37.1813Z" fill="var(--hm-clothes, #FFFFFF)"/>
<path d="M36.2067 7.13202C36.3067 8.50402 36.6813 9.84135 37.3067 11.0667C37.36 11.1947 37.4467 11.3054 37.5573 11.388C37.7533 11.508 38.008 11.4347 38.224 11.356C40.1747 10.648 42.0627 9.77602 43.8667 8.75069C44.7867 8.22802 45.7173 7.63335 46.2667 6.73069C46.7867 5.87869 46.9107 4.85202 47.0227 3.86135L47.2613 1.74535C47.284 1.63735 47.2733 1.52535 47.2293 1.42535C47.112 1.22269 46.8093 1.26935 46.588 1.34402C43.0133 2.55869 39.5773 4.19069 36.2067 7.13202Z" fill="var(--hm-clothes, #FFFFFF)"/>
<path d="M35.0667 2.12C34.6787 2.82933 34.2787 3.59466 34.348 4.4C34.4174 5.20533 35.1787 6 35.9587 5.78933C36.004 6.74533 35.3294 7.56533 34.6947 8.28133L33.044 10.148C32.9827 10.2307 32.9 10.2947 32.804 10.332C32.5747 10.3973 32.3827 10.1547 32.2707 9.94266C31.572 8.624 31.0547 7.21733 30.7334 5.76C30.66 5.55733 30.652 5.33733 30.708 5.12933C30.7654 4.92133 30.884 4.736 31.0507 4.59866C31.8987 3.63333 32.8854 2.79733 33.8987 2.00666C34.1454 1.81333 34.432 1.60666 34.7414 1.64666C35.0507 1.68666 35.3 2.104 35.0667 2.12Z" fill="var(--hm-clothes, #FFFFFF)"/>
<path d="M51.8413 32.2413C52.0893 40.948 52.7493 49.6293 53.8226 58.2867C52.9413 58.3413 52.028 58.5533 51.36 59.1293C50.692 59.7053 50.3533 60.7293 50.768 61.512C51.3293 62.5667 52.8693 62.6893 53.5893 63.6453C54.0613 64.2707 54.0813 65.112 54.3213 65.8627C54.536 66.5307 54.932 67.124 55.4653 67.5787C55.9986 68.0333 56.648 68.3307 57.3413 68.4373C58.0346 68.544 58.7426 68.4547 59.388 68.1813C60.0333 67.908 60.5893 67.4587 60.9946 66.8867C62.0506 65.3947 61.8933 63.3947 61.692 61.5787C60.6026 51.7267 59.512 41.8787 58.4226 32.036L51.8413 32.2413Z" fill="var(--hm-skin, #FFFFFF)"/>
<path d="M20.2307 59.7667C20.0307 61.488 19.8307 63.2107 19.7547 64.9413L19.6547 65.2867C18.6294 65.1027 17.5014 64.7987 16.9574 63.9107C16.0734 62.468 17.2907 60.5147 16.6907 58.932C16.2747 57.824 14.996 56.852 15.4294 55.7507C15.7907 54.8333 17.052 54.7267 17.7934 54.0773C18.5347 53.428 18.652 52.372 18.7334 51.4107L20.7187 27.7747L20.7734 27.508C21.848 27.9213 22.9254 28.3253 24.0147 28.6987L24.076 28.7347C23.156 34.5213 22.476 40.352 21.8094 46.172" fill="var(--hm-skin, #FFFFFF)"/>
<path d="M52.5173 32.932C50.904 32.932 49.2853 32.8187 47.6653 32.5907C47.2613 32.5333 46.9653 32.1827 46.9773 31.776L47.3413 19C47.3533 18.5587 47.7213 18.2067 48.164 18.2227C48.6053 18.2347 48.9533 18.604 48.9413 19.0453L48.5973 31.0987C52.756 31.5947 56.904 31.3013 60.9493 30.2253C59.7707 27.4533 59.1787 24.4813 58.604 21.5973C58.0933 19.032 57.5653 16.3813 56.628 13.9453C55.6987 11.5293 54.3747 9.30666 52.692 7.33999C51.1173 5.49999 49.5827 4.39866 48.0027 3.97599C47.576 3.86133 47.3227 3.42266 47.4373 2.99599C47.552 2.56933 47.9907 2.31599 48.4173 2.43066C50.32 2.93999 52.1173 4.20666 53.9093 6.30133C55.7107 8.40666 57.128 10.7867 58.1227 13.3733C59.108 15.9373 59.6507 18.6573 60.1747 21.288C60.8187 24.5187 61.4253 27.5707 62.784 30.4013C62.8853 30.6133 62.8893 30.8573 62.7933 31.072C62.6973 31.2867 62.5133 31.448 62.2893 31.5147C59.0827 32.456 55.812 32.932 52.5173 32.932Z" fill="var(--hm-stroke, #000000)"/>
<path d="M24.0187 29.4973C23.932 29.4973 23.8453 29.4827 23.7587 29.4533C22.204 28.92 20.6547 28.3187 19.156 27.736L19.1533 27.7347C18.8187 27.6307 18.516 27.4413 18.2773 27.184C18.2613 27.1667 18.2467 27.1493 18.232 27.1307C17.776 26.5427 17.832 25.78 18.3973 24.8613C20.6373 21.2187 22.5707 17.3533 24.1427 13.3747L24.2813 13.0213C25.4867 9.95734 26.8533 6.48534 29.9853 4.93734C30.3813 4.74134 30.8613 4.90401 31.0573 5.30001C31.2533 5.69601 31.0907 6.17601 30.6947 6.37201C28.1173 7.64534 26.924 10.676 25.7707 13.6067L25.6307 13.9613C24.0253 18.0267 22.0493 21.976 19.76 25.6987C19.608 25.9453 19.556 26.0907 19.5387 26.1653C19.568 26.1827 19.6 26.1973 19.6347 26.2067C19.6587 26.2133 19.6813 26.2213 19.704 26.2293L19.736 26.2413C21.22 26.8173 22.7547 27.4133 24.2787 27.936C24.696 28.08 24.9187 28.5347 24.776 28.952C24.6613 29.2893 24.3507 29.4973 24.0187 29.4973Z" fill="var(--hm-stroke, #000000)"/>
<path d="M26.0227 68.5654C25.9733 68.5654 25.9227 68.56 25.872 68.5507L21.2227 67.6614C20.6973 67.556 19.832 67.3814 19.3307 66.6694C18.9387 66.1107 18.9307 65.468 18.9547 64.9107C19.032 63.148 19.2373 61.384 19.4347 59.6787L21.0507 45.744C22.1493 36.34 23.284 26.6147 25.4947 17.232C25.596 16.8027 26.0253 16.5347 26.4573 16.6374C26.8867 16.7387 27.1533 17.1694 27.052 17.6C24.8627 26.8934 23.7333 36.572 22.64 45.932L21.024 59.8654C20.8293 61.544 20.628 63.2787 20.552 64.9827C20.5427 65.1947 20.5253 65.592 20.6387 65.752C20.772 65.9414 21.2467 66.0374 21.5293 66.0934L26.1707 66.9814C26.604 67.064 26.8893 67.484 26.8053 67.9174C26.7347 68.2987 26.4 68.5654 26.0227 68.5654Z" fill="var(--hm-stroke, #000000)"/>
<path d="M40.2627 69.9053C36.2773 69.9053 32.4213 69.5867 28.6453 68.9493C28.2093 68.876 27.916 68.4627 27.9893 68.028C28.0627 67.592 28.4747 67.2973 28.9107 67.372C37.1307 68.7587 45.7587 68.6013 55.288 66.892C55.7227 66.8133 56.1387 67.1027 56.216 67.5387C56.2947 67.9733 56.0053 68.3893 55.5693 68.4667C50.2213 69.4253 45.1453 69.9053 40.2627 69.9053Z" fill="var(--hm-stroke, #000000)"/>
<path d="M61.624 67.2453C61.2507 67.2453 60.9174 66.9826 60.84 66.6026C60.7534 66.1693 61.0334 65.748 61.4667 65.66C61.8894 65.5746 62.3054 65.5066 62.708 65.4413C63.8867 65.248 65 65.0666 65.9934 64.5013C66.1027 64.4386 66.272 64.344 66.368 64.2493C66.3654 64.052 66.2854 63.5986 65.972 62.5773C65.9494 62.504 65.9294 62.44 65.9147 62.3906C65.1787 59.984 64.4854 57.696 63.816 55.4826C62.0374 49.6106 60.3587 44.064 58.2147 37.4266C58.0787 37.0066 58.3094 36.5546 58.7307 36.42C59.1507 36.2853 59.6014 36.5146 59.7374 36.936C61.8854 43.5866 63.5667 49.14 65.348 55.0186C66.0174 57.2306 66.7107 59.5173 67.448 61.9293C67.464 61.9826 67.4814 62.04 67.5027 62.1066C67.952 63.568 68.1294 64.4667 67.784 65.0267C67.52 65.4533 67.1294 65.6973 66.784 65.8933C65.5427 66.5986 64.2334 66.8133 62.9667 67.0213C62.5774 67.0853 62.176 67.1506 61.7827 67.2306C61.7294 67.24 61.6774 67.2453 61.624 67.2453Z" fill="var(--hm-stroke, #000000)"/>
<path d="M57.9067 69.28C57.6733 69.28 57.44 69.2627 57.2067 69.2267C56.3667 69.0973 55.5813 68.7373 54.9347 68.184C54.288 67.632 53.8093 66.912 53.5493 66.1027C53.46 65.82 53.4 65.5453 53.344 65.2787C53.244 64.8093 53.156 64.404 52.944 64.1213C52.7187 63.824 52.3013 63.608 51.8587 63.38C51.2093 63.0453 50.4733 62.6667 50.056 61.8827C49.4973 60.8253 49.832 59.38 50.836 58.5187C51.376 58.0547 52.0787 57.7427 52.9307 57.5867C51.9253 49.2067 51.2987 40.6893 51.0667 32.26C51.0547 31.8187 51.4027 31.4507 51.844 31.4387C51.852 31.4387 51.8587 31.4387 51.8667 31.4387C52.2987 31.4387 52.6547 31.7827 52.6667 32.216C52.904 40.8627 53.56 49.6 54.616 58.1867C54.6427 58.4053 54.5787 58.6253 54.4373 58.796C54.296 58.9653 54.092 59.0693 53.872 59.0827C52.988 59.1373 52.3173 59.356 51.88 59.732C51.444 60.1067 51.2613 60.7347 51.472 61.132C51.6533 61.4733 52.0893 61.6973 52.5933 61.9573C53.148 62.244 53.7773 62.568 54.2227 63.1573C54.6493 63.7227 54.788 64.3707 54.9107 64.9427C54.9627 65.1827 55.0107 65.4093 55.076 65.616C55.244 66.14 55.556 66.608 55.976 66.968C56.396 67.3267 56.908 67.5613 57.4533 67.6453C58 67.7293 58.5573 67.66 59.0667 67.4453C59.576 67.2293 60.0133 66.8773 60.3333 66.4267C61.1987 65.2067 61.0933 63.48 60.8947 61.668L57.6547 32.124C57.6067 31.6853 57.924 31.2893 58.3627 31.2413C58.8027 31.1933 59.1973 31.5107 59.2453 31.9493L62.4853 61.4933C62.6613 63.1027 62.928 65.5347 61.6387 67.352C61.1467 68.0453 60.4733 68.5867 59.6907 68.9187C59.1227 69.1587 58.5173 69.28 57.9067 69.28Z" fill="var(--hm-stroke, #000000)"/>
<path d="M19.66 66.0827C19.6133 66.0827 19.5653 66.0787 19.5173 66.0693C18.312 65.8533 16.9853 65.4773 16.2787 64.324C15.6533 63.3067 15.812 62.172 15.952 61.172C16.0547 60.4427 16.1507 59.7533 15.9453 59.2093C15.8347 58.912 15.62 58.596 15.3947 58.26C14.8853 57.504 14.252 56.564 14.688 55.4533C15.0293 54.592 15.8213 54.224 16.456 53.928C16.7747 53.78 17.0747 53.64 17.2707 53.4693C17.7573 53.0453 17.864 52.22 17.9387 51.3387L19.924 27.7027C19.9613 27.2627 20.3507 26.936 20.788 26.972C21.228 27.0093 21.5547 27.396 21.5187 27.836L19.5333 51.472C19.4347 52.6453 19.26 53.8587 18.3213 54.6747C17.9547 54.9933 17.5173 55.1973 17.1307 55.3773C16.6747 55.5893 16.2813 55.772 16.176 56.04C16.056 56.344 16.3027 56.744 16.7213 57.3653C16.9893 57.7627 17.2653 58.1733 17.4427 58.6453C17.7907 59.5707 17.6547 60.5387 17.536 61.392C17.4187 62.232 17.3173 62.9573 17.6413 63.4853C18.0187 64.1 18.9427 64.34 19.7987 64.4933C20.2333 64.5707 20.5227 64.9867 20.4453 65.4213C20.3773 65.8107 20.04 66.0827 19.66 66.0827Z" fill="var(--hm-stroke, #000000)"/>
<path d="M37.8 12.2507C37.5907 12.2507 37.3613 12.2054 37.14 12.0694C37.12 12.0574 37.1013 12.044 37.0827 12.0307C36.864 11.8694 36.692 11.6534 36.5827 11.4054C35.912 10.0854 35.5173 8.66669 35.4093 7.18936C35.3907 6.93869 35.492 6.69336 35.6813 6.52802C38.6973 3.89602 41.9827 2.06269 46.332 0.585358C47.1573 0.306691 47.6947 0.629358 47.9227 1.02269C47.9373 1.04936 47.9507 1.07602 47.9627 1.10269C48.068 1.34402 48.0987 1.60536 48.0533 1.86402L47.8187 3.94936C47.7093 4.92002 47.572 6.12669 46.9507 7.14536C46.288 8.23469 45.216 8.90269 44.2627 9.44402C42.424 10.4894 40.4853 11.384 38.4973 12.1054C38.3653 12.156 38.104 12.2507 37.8 12.2507ZM37.0413 7.46936C37.1667 8.56002 37.4773 9.61069 37.9667 10.5987C39.864 9.90936 41.716 9.05336 43.472 8.05602C44.2507 7.61336 45.12 7.07869 45.584 6.31602C46.0227 5.59869 46.1267 4.67069 46.228 3.77336L46.3987 2.25736C42.6253 3.58402 39.7067 5.20936 37.0413 7.46936Z" fill="var(--hm-stroke, #000000)"/>
<path d="M32.792 11.1987C32.4707 11.1987 31.9934 11.0613 31.6294 10.3733C30.9 8.99733 30.36 7.528 30.0227 6.00666C29.9454 5.72266 29.9267 5.432 29.9667 5.14133C29.972 5.104 29.98 5.068 29.9894 5.032C30.0894 4.67866 30.28 4.356 30.5387 4.09733C31.432 3.12 32.42 2.22133 33.4774 1.42533C33.752 1.212 34.256 0.82133 34.9134 0.90933C35.4307 0.978663 36.1707 1.49866 36.1494 2.15866C36.1414 2.39866 36.04 2.61066 35.876 2.76C35.8374 2.82666 35.7987 2.89333 35.76 2.96133C35.472 3.46 35.1734 3.976 35.208 4.39333C35.224 4.58666 35.364 4.80533 36.2614 5.08533C36.5827 5.18533 36.8067 5.476 36.8227 5.812C36.884 7.14933 35.9294 8.228 35.3587 8.872L33.7254 10.7173C33.5787 10.904 33.384 11.0493 33.1627 11.136C33.1374 11.1453 33.112 11.1547 33.0867 11.1613C33.0267 11.176 32.9227 11.1987 32.792 11.1987ZM31.548 5.416C31.5454 5.476 31.5534 5.53466 31.5694 5.59333C31.5734 5.60933 31.5774 5.62533 31.5814 5.64133C31.8587 6.90133 32.2894 8.12133 32.864 9.27466L34.1627 7.808C34.5734 7.344 34.976 6.86 35.1454 6.38133C34.4894 6.1 33.7054 5.576 33.6174 4.52533C33.576 4.03066 33.6854 3.57733 33.8587 3.16C33.0934 3.78266 32.3734 4.46266 31.7094 5.19066C31.6987 5.20266 31.688 5.21333 31.676 5.22533C31.62 5.28 31.576 5.34533 31.548 5.416Z" fill="var(--hm-stroke, #000000)"/>
<path d="M35 13.6C35.405 13.6 35.7334 13.2717 35.7334 12.8667C35.7334 12.4617 35.405 12.1333 35 12.1333C34.595 12.1333 34.2667 12.4617 34.2667 12.8667C34.2667 13.2717 34.595 13.6 35 13.6Z" fill="var(--hm-stroke, #000000)"/>
<path d="M34.4667 18.6667C34.8717 18.6667 35.2 18.3383 35.2 17.9333C35.2 17.5283 34.8717 17.2 34.4667 17.2C34.0617 17.2 33.7333 17.5283 33.7333 17.9333C33.7333 18.3383 34.0617 18.6667 34.4667 18.6667Z" fill="var(--hm-stroke, #000000)"/>
</g><g data-hm-layer-slot="head" data-hm-part-id="hm1-p-000018" data-hm-selection-slot="head" data-hm-source-group-id="head" data-hm-source-part-id="018" transform="translate(0, -0.5)">
<path d="M45.2667 52.3333C45.1147 50.508 45.472 48.932 46.2667 47.2813C46.4467 46.908 46.8333 46.912 47.216 46.7907C47.556 46.684 47.8893 46.5613 48.2187 46.4227C48.8867 46.1453 49.5187 45.7867 50.0987 45.356C51.248 44.488 52.144 43.2693 52.48 41.856C52.7853 40.5747 52.5707 39.0493 51.1467 38.328C50.1427 37.8213 49.2427 38.0013 47.7133 39.3453L46.5973 38.5733C46.0973 38.916 45.4387 38.392 45.1773 37.8453C44.504 36.436 44.8373 34.7787 45.184 33.2533C44.384 34.116 42.928 34.2533 41.984 33.5547C41.332 33.0707 40.964 32.2787 40.828 31.4787C40.692 30.6787 40.7627 29.8587 40.84 29.0507C40.0293 30.6 38.5667 31.6347 36.9813 31.8093C36.1853 31.8893 35.3813 31.7693 34.6427 31.4613C33.904 31.1533 33.2533 30.6667 32.7493 30.0453C32.5533 30.6 32.2293 31.1013 31.8067 31.5107C31.3827 31.92 30.8707 32.224 30.3093 32.4C29.748 32.576 29.1533 32.62 28.572 32.528C27.9907 32.436 27.4387 32.2093 26.96 31.8667L26.7173 32.308L25.176 33.6667C24.316 35.8787 23.7987 37.876 23.668 39.0853C23.3387 42.1307 23.9533 45.5147 26.2827 47.684C27.524 48.8387 29.0613 49.4067 30.7053 49.696C32.42 49.9987 34.26 50.2747 35.924 49.5947C35.836 50.9827 35.86 52.2107 35.924 53.6" fill="var(--hm-skin, #FFFFFF)"/>
<path d="M46.4 49.7773C47.2 50 48 50.6667 48.1333 51.4667C48.5333 54.6667 48.4 57.7333 48 60.9333C47.7333 63.4667 47.2 63.972 47.0667 66.5053C46.8 68.2387 47.04 68.7027 47.3067 70.5693C47.5733 72.3027 48.1067 73.9027 49.1733 75.3693C50.64 77.236 52.24 78.036 54.7733 78.036C56.3733 77.1027 55.44 76.436 54.7733 75.236C54.1307 73.6627 54.084 71.908 54.64 70.3027C55.7067 66.836 56.9387 66.9333 57.2053 63.3333C57.344 62.0747 57.208 60.8013 56.8053 59.6C56.4053 58.8 56.272 58 55.7387 57.2C54.9387 56.2667 54.4053 55.3333 53.7387 54.2667C53.072 53.2 52.5387 52.1333 52.672 50.9333C52.9387 49.3333 54.272 48.2667 55.3387 46.9333C55.7693 46.3773 56.1707 45.7987 56.5387 45.2C56.672 44.9333 56.8053 44.5333 56.9387 44.2667C57.2053 43.6 57.3387 42.8 57.472 42.1333C57.472 39.0667 57.6053 36 56.672 33.0667C55.7387 30.2667 54.272 27.8667 52.5387 25.4667C52.1387 24.9333 51.7387 24.5333 51.3387 24C50.672 23.4667 49.872 22.8 49.072 22.4C47.7387 21.8667 46.4053 22.1333 45.072 21.8667C44.4053 21.6 43.7387 21.4667 43.3387 20.9333C42.5387 19.8667 41.872 18.5333 40.5387 18.4C39.7387 18.4 39.072 18.2667 38.272 18.4C35.872 19.0667 33.6053 19.8667 31.2053 20C27.872 20.1333 25.072 22.5333 23.6053 25.4667L23.2053 25.8667C21.872 28.6667 20.0053 31.3333 19.7387 34.4C19.472 36.9333 19.3387 39.7333 21.072 41.8667C22.0053 42.4 22.9387 42.9333 23.9373 43.5467C23.4787 41.4853 23.4653 43.268 23.9373 43.5467C23.496 41.48 23.5053 39.3427 23.9667 37.28C24.1933 36.2467 24.5133 35.236 24.9227 34.26C25.16 33.6947 25.3787 33.4987 25.8307 33.1013C26.2827 32.704 26.6733 32.4027 26.964 31.8747C28.9853 33.3067 31.9147 32.3787 32.744 30.0467C34.3853 32.1093 37.4467 32.3907 39.4667 30.7387C40.032 30.2747 40.4973 29.7 40.8347 29.052C40.6933 30.5293 40.588 32.3333 41.8133 33.4213C42.7467 34.2547 44.324 34.1813 45.1773 33.2547C44.9413 34.292 44.708 35.364 44.8013 36.4347C44.8 37.4667 45.4667 38.8 46.8 38.6667C47.2 38.6667 47.3333 39.2 47.7333 39.3333C47.8667 39.3333 48 39.0667 48.1333 38.9333C48.8 38.4 49.6 38 50.5333 38.1333C51.044 38.1907 51.52 38.42 51.884 38.7827C52.248 39.1467 52.476 39.6227 52.5333 40.1333C52.9333 42.8 51.0667 44.9333 48.9333 46.1333C48.6667 46.2667 48.2667 46.4 48 46.5333C47.4667 46.6667 46.9333 46.6667 46.5333 46.9333C45.8667 47.4667 45.8667 48.2667 45.592 49.092L46.4 49.7773Z" fill="var(--hm-hair, #000000)"/>
<path d="M54.4187 78.876C53.9453 78.876 53.5173 78.7133 53.1507 78.544C50.368 77.2707 48.312 76.144 47.2213 73.24C46.2027 70.5307 45.8 68.7133 46.264 65.7187C46.4187 64.7227 46.5667 64.244 46.7107 63.7827C46.8413 63.3613 46.9653 62.964 47.1053 62.112C47.588 59.164 47.5187 56.1293 47.4507 53.1933C47.436 52.5613 47.4213 51.908 47.2067 51.3827C47.0253 50.9373 46.6627 50.6053 46.3253 50.5747C45.8853 50.5333 45.5613 50.144 45.6027 49.704C45.6427 49.264 46.032 48.9413 46.4733 48.9813C47.4227 49.0693 48.2707 49.7573 48.688 50.7773C49.0147 51.576 49.0333 52.416 49.0493 53.156C49.1187 56.164 49.1893 59.276 48.6827 62.3693C48.5253 63.332 48.3787 63.8013 48.2373 64.256C48.1053 64.6813 47.98 65.084 47.844 65.9613C47.432 68.62 47.7813 70.1813 48.7187 72.6747C49.596 75.0107 51.3067 75.9387 53.8173 77.0867C54.0347 77.1867 54.3053 77.296 54.4813 77.268C54.608 77.248 54.7253 77.236 54.832 77.228C54.7293 76.9 54.56 76.568 54.384 76.2227C54.2453 75.9507 54.1013 75.668 53.9787 75.3667C53.4027 73.9507 53.3387 72.216 53.7947 70.3493C54.0947 69.1227 54.5707 67.96 55.0307 66.836C55.156 66.532 55.28 66.228 55.4013 65.9227L55.5987 65.4307C56.7373 62.584 56.9427 62.072 55.8027 59.1987C55.38 58.1333 54.7307 57.1733 54.0427 56.156C53.364 55.152 52.6613 54.1133 52.1773 52.944C51.7293 51.8613 51.872 50.4867 52.2427 49.6893C52.692 48.728 53.3587 47.94 54.004 47.1787C54.316 46.8107 54.6093 46.4627 54.8787 46.1C55.3507 45.4613 55.84 44.8027 56.1413 44.1053C56.7373 42.728 56.6813 41.056 56.6307 39.5827C56.564 37.5733 56.4947 35.496 55.9387 33.5653C55.3867 31.6467 54.3133 29.8107 53.2627 28.0947C52.46 26.7867 51.6533 25.532 50.62 24.5507C49.508 23.4947 48.232 22.892 47.0267 22.8507C46.5853 22.836 46.2387 22.4653 46.2533 22.024C46.268 21.5827 46.64 21.236 47.08 21.252C48.6773 21.3053 50.3253 22.0653 51.7213 23.3893C52.896 24.504 53.7667 25.856 54.6267 27.2573C55.736 29.068 56.868 31.0107 57.476 33.1213C58.0867 35.244 58.16 37.4227 58.2293 39.528C58.2853 41.1707 58.348 43.0333 57.6093 44.74C57.2347 45.6067 56.6907 46.3413 56.1653 47.052C55.8667 47.4573 55.5413 47.8413 55.2267 48.2133C54.6227 48.9267 54.052 49.6 53.6947 50.3667C53.5053 50.772 53.388 51.6813 53.6573 52.3333C54.08 53.3533 54.7067 54.28 55.3693 55.2613C56.0747 56.3053 56.804 57.384 57.2907 58.6107C58.6667 62.076 58.268 63.072 57.0853 66.028L56.8907 66.516C56.768 66.8253 56.6413 67.136 56.5133 67.4453C56.0547 68.564 55.6213 69.62 55.3507 70.7307C55.0893 71.8027 54.896 73.3733 55.4627 74.764C55.56 75.004 55.6827 75.244 55.812 75.4987C56.0853 76.036 56.368 76.5907 56.484 77.2547C56.524 77.48 56.616 78.0093 56.2827 78.416C55.968 78.7987 55.528 78.808 55.2053 78.816C55.0587 78.8187 54.9067 78.8227 54.736 78.8493C54.6267 78.868 54.5213 78.876 54.4187 78.876Z" fill="var(--hm-stroke, #000000)"/>
<path d="M46.2373 39.4773C46.108 39.4773 45.976 39.46 45.844 39.4253C45.1693 39.2453 44.68 38.6707 44.4467 38.1933C43.908 37.0667 43.9107 35.8427 44.0667 34.7293C43.1853 34.9107 42.2333 34.7413 41.496 34.1947C40.736 33.6307 40.2147 32.7133 40.028 31.6107C40.0133 31.5213 40 31.432 39.9893 31.3427C39.1467 32.04 38.1347 32.484 37.0573 32.6027C36.124 32.696 35.1813 32.556 34.3227 32.1987C33.8267 31.992 33.3627 31.7147 32.9467 31.3773C32.772 31.6307 32.5733 31.868 32.352 32.0813C31.8427 32.5733 31.2173 32.9453 30.544 33.1587C29.8693 33.372 29.1427 33.4267 28.4453 33.3173C28.02 33.2507 27.6027 33.1227 27.212 32.9413C26.9667 33.1347 26.62 33.1747 26.3293 33.0147C25.9427 32.8013 25.8013 32.3147 26.0133 31.928L26.256 31.4867C26.3653 31.2867 26.556 31.144 26.7787 31.092C27.0013 31.0413 27.2347 31.088 27.42 31.22C27.796 31.4867 28.236 31.6653 28.692 31.7373C29.148 31.8093 29.6213 31.7733 30.0613 31.6333C30.5013 31.4947 30.9093 31.2507 31.24 30.9307C31.572 30.6107 31.8293 30.2107 31.9827 29.776C32.08 29.5027 32.316 29.304 32.6013 29.2547C32.8853 29.2053 33.176 29.3147 33.3587 29.54C33.7773 30.0573 34.324 30.4653 34.9387 30.7213C35.5533 30.9773 36.2267 31.0773 36.8893 31.0107C38.2013 30.8667 39.4413 29.972 40.1187 28.6773C40.296 28.3387 40.688 28.172 41.056 28.2813C41.4227 28.3907 41.6613 28.744 41.624 29.124C41.5427 29.9693 41.4907 30.6693 41.604 31.3413C41.672 31.744 41.8733 32.4827 42.448 32.9093C43.0627 33.3653 44.0613 33.2707 44.584 32.7067C44.8307 32.4413 45.224 32.3747 45.544 32.5427C45.864 32.712 46.0307 33.0747 45.9507 33.428C45.596 34.9867 45.3467 36.368 45.8853 37.4973C45.9733 37.6773 46.124 37.8133 46.212 37.8613C46.568 37.6747 47.0147 37.7813 47.2453 38.1213C47.4933 38.4867 47.3973 38.984 47.032 39.232C46.796 39.3933 46.5213 39.4773 46.2373 39.4773Z" fill="var(--hm-stroke, #000000)"/>
<path d="M22.052 43.2347C21.9707 43.2347 21.888 43.2227 21.8053 43.196C20.3827 42.736 19.4213 41.3227 19.0267 39.1093C18.616 36.816 18.6693 34.6827 19.1827 32.7693C19.5733 31.3187 20.2133 30.0027 20.9467 28.5547C21.9387 26.5773 22.9653 24.5293 24.4573 22.7787C26.184 20.7533 28.3187 19.4707 30.468 19.1667C31.0133 19.088 31.5533 19.0693 32.076 19.0533C32.556 19.0373 33.0093 19.0227 33.452 18.9627C34.2627 18.852 35.0547 18.5867 35.8933 18.3053C36.6293 18.0587 37.392 17.8027 38.1907 17.6507C40.0747 17.2933 42.428 17.7333 43.4373 19.524C43.6547 19.9093 43.5173 20.3973 43.1333 20.6133C42.748 20.8307 42.26 20.6933 42.044 20.3093C41.428 19.216 39.7693 18.98 38.4907 19.2227C37.7987 19.3533 37.1213 19.5813 36.404 19.8227C35.532 20.116 34.6307 20.4187 33.6693 20.548C33.1467 20.6187 32.6307 20.636 32.132 20.652C31.6307 20.668 31.1573 20.684 30.6987 20.7507C28.9333 21 27.152 22.0893 25.68 23.816C24.3133 25.4187 23.3307 27.3787 22.3813 29.2747C21.6867 30.6453 21.084 31.8827 20.7333 33.184C20.2813 34.868 20.2387 36.7667 20.6067 38.8267C20.8053 39.94 21.2613 41.336 22.3027 41.6733C22.7227 41.8093 22.9533 42.26 22.8173 42.68C22.704 43.02 22.3893 43.2347 22.052 43.2347Z" fill="var(--hm-stroke, #000000)"/>
<path d="M45.2787 52.3187C44.868 52.3187 44.5173 52.0027 44.4827 51.5853C44.3133 49.5773 44.704 48.6573 45.5333 46.9307C45.8373 46.3 46.412 46.1613 46.756 46.0787C46.8307 46.06 46.9013 46.044 46.9627 46.024C47.28 45.924 47.5933 45.8093 47.896 45.6813C48.508 45.428 49.0827 45.1013 49.6107 44.7093C50.6747 43.9053 51.416 42.8227 51.6907 41.6667C51.832 41.084 52.024 39.668 50.7747 39.0373C50.2293 38.7613 49.6947 38.6533 48.2293 39.9413C47.8973 40.2333 47.392 40.2 47.1 39.868C46.808 39.536 46.8413 39.0307 47.1733 38.7387C49.2773 36.8893 50.4947 37.1027 51.4947 37.608C53.0467 38.392 53.7173 40.0893 53.2453 42.0387C52.8853 43.5533 51.9347 44.9573 50.5693 45.988C49.932 46.4613 49.2413 46.8533 48.5133 47.1547C48.168 47.3 47.8067 47.4333 47.4427 47.5467C47.332 47.5813 47.2253 47.608 47.132 47.6307C47.0733 47.6453 46.9973 47.6627 46.948 47.6787C46.1813 49.2787 45.944 49.88 46.0773 51.448C46.1147 51.888 45.788 52.276 45.348 52.312C45.324 52.3173 45.3013 52.3187 45.2787 52.3187Z" fill="var(--hm-stroke, #000000)"/>
<path d="M35.884 53.4987C35.4587 53.4987 35.1053 53.164 35.0853 52.7347C35.0427 51.796 35.0333 51.324 35.06 50.68C33.4573 50.9893 31.8253 50.7053 30.5667 50.4853C28.5333 50.1267 26.9533 49.4027 25.736 48.2707C23.4987 46.1867 22.4547 42.808 22.8707 38.9987C23.0267 37.5867 23.608 35.4853 24.428 33.3773C24.588 32.9653 25.052 32.7613 25.464 32.9213C25.876 33.0813 26.08 33.5453 25.92 33.9573C25.0107 36.296 24.5707 38.1853 24.4613 39.1733C24.1 42.4733 24.9613 45.3627 26.8267 47.0987C27.824 48.0267 29.1 48.6013 30.8427 48.908C32.624 49.2187 34.2133 49.428 35.62 48.8533C35.8747 48.7493 36.1653 48.784 36.3893 48.944C36.6133 49.1053 36.7387 49.3693 36.7213 49.644C36.636 50.9853 36.6213 51.2813 36.6853 52.6573C36.7053 53.0987 36.364 53.4733 35.9227 53.4933C35.9093 53.4987 35.8973 53.4987 35.884 53.4987Z" fill="var(--hm-stroke, #000000)"/>
<path d="M29.124 37.3467C29.6395 37.3467 30.0573 36.8393 30.0573 36.2134C30.0573 35.5874 29.6395 35.08 29.124 35.08C28.6085 35.08 28.1907 35.5874 28.1907 36.2134C28.1907 36.8393 28.6085 37.3467 29.124 37.3467Z" fill="var(--hm-stroke, #000000)"/>
<path d="M33.6573 37.66C34.1728 37.66 34.5907 37.1526 34.5907 36.5267C34.5907 35.9008 34.1728 35.3933 33.6573 35.3933C33.1419 35.3933 32.724 35.9008 32.724 36.5267C32.724 37.1526 33.1419 37.66 33.6573 37.66Z" fill="var(--hm-stroke, #000000)"/>
</g><g data-hm-layer-slot="item" data-hm-part-id="hm1-p-000070" data-hm-selection-slot="item" data-hm-source-group-id="item" data-hm-source-part-id="016" transform="translate(0, 0)">
  <!-- Generator: Adobe Illustrator 30.5.1, SVG Export Plug-In . SVG Version: 2.1.4 Build 3)  -->
  <defs>
    <style>
      .st0 {
        fill: #71e8ff;
      }

      .st1 {
        fill: #fed5f3;
      }

      .st2 {
        fill: #FFFFFF;
      }

      .st3 {
        fill: none;
        stroke: var(--hm-stroke, #000000);
        stroke-linecap: round;
        stroke-linejoin: round;
        stroke-width: 1.47px;
      }

      .st4 {
        fill: #d8fffb;
      }

      .st5 {
        fill: #71aeff;
      }
    </style>
  </defs>
  <path class="st0" d="M40.48,2.42c-1.93-.1-2.94.2-4.16,1.32s-1.71,2.87-1.63,4.52c.04.94.23,2.43.98,2.99.3.23,1.77.54,2.73.61,1.48.11,3.32.23,4.81.34.57.04.83.05,1.33-.21.64-.34.96-1.06,1.19-1.75.36-1.08.61-2.22.55-3.35s-.46-2.29-1.25-3.1-2.03-1.3-3.16-1.3l-1.37-.06h0Z"/>
  <path class="st4" d="M45.81,5.55c-.02-.06-.04-.13-.06-.18-.03-.25-.08-.5-.16-.73-.13-.36-.32-.72-.62-.97-.33-.27-.7-.44-1.1-.57-.8-.25-1.64-.38-2.47-.44-.28-.02-.57-.03-.86-.03-1.51-.14-3.3-.19-4.39,1.07-.26.3-.46.65-.62,1.02-.48.61-.82,1.33-.95,2.1-.29,1.58.21,3.2,1.51,4.19.21.16.42.28.65.38.69.42,1.51.64,2.3.75.69.09,1.4.12,2.1.11.72,0,1.48-.02,2.18-.21.02,0,.03-.01.05-.01.57-.03,1.14-.2,1.54-.64.51-.55.63-1.3.7-2.02.01-.16.03-.31.04-.47.16-.72.25-1.46.25-2.19,0-.38,0-.78-.08-1.15h0ZM44.35,9.1c-.04.14-.08.29-.13.43-.02.06-.04.12-.07.19,0,.02-.01.03-.02.05,0,0-.02.05-.03.07-.05.11-.11.22-.17.33-.03.06-.07.11-.11.16,0,0-.03.04-.04.05-.01.02-.03.04-.04.04-.04.05-.09.09-.14.14-.02.02-.05.04-.07.06,0,0,0,0,0,0-.06.04-.12.08-.18.11-.03.01-.05.03-.08.04,0,0-.02,0-.02.01,0,0-.02,0-.03.01-.03,0-.05.02-.08.03-.56,0-1.13-.09-1.68-.15-.76-.08-1.53-.16-2.29-.24-.38-.04-.75-.08-1.13-.12-.18-.02-.36-.04-.55-.06,0,0-.09-.03-.21-.08-.28-.1-.51-.3-.67-.55,0,0,0-.01,0-.01,0,0-.04-.11-.05-.13-.06-.17-.12-.35-.17-.53-.18-.65-.23-1.2-.19-1.9.02-.37.05-.56.13-.94.05-.22.11-.44.18-.65.04-.11.1-.21.18-.3,0,0,0,0,0,0,.1-.11.21-.22.33-.32.05-.04.1-.08.14-.12,0,0,.03-.03.05-.04.02-.01.04-.03.04-.03.12-.08.24-.16.36-.24.12-.07.24-.13.36-.19.03-.01.06-.03.09-.04,0,0,0,0,.01,0,.07-.03.13-.05.2-.07.68-.23,1.3-.27,2.02-.28.08,0,.15,0,.23,0,.03.03,3.09.12,3.72,1.61.03.06.06.11.11.17-.06-.07.01.03.05.09,0,.02.03.07.04.09,0,.03.02.17.02.06,0,.08,0,.15,0,.23-.01.13.03.25.11.35,0,.56-.04,1.13-.08,1.69-.01.19-.03.38-.04.57-.03.14-.07.28-.11.42h0Z"/>
  <path class="st3" d="M40.48,2.42c-1.93-.1-2.94.2-4.16,1.32s-1.71,2.87-1.63,4.52c.04.94.23,2.43.98,2.99.3.23,1.77.54,2.73.61,1.48.11,3.32.23,4.81.34.57.04.83.05,1.33-.21.64-.34.96-1.06,1.19-1.75.36-1.08.61-2.22.55-3.35s-.46-2.29-1.25-3.1-2.03-1.3-3.16-1.3l-1.37-.06h0Z"/>
  <path class="st3" d="M41.08,0v2.26"/>
  <path class="st3" d="M40.14,12.52c-.23.73-.46,1.46-.69,2.2"/>
  <path class="st5" d="M33.8,19.33c-1.32,1.26-3.09,2.21-4.89,1.95,0,0,3.45,3.02,5.87,4.1,3.35-2.02,5.37-5.53,6.34-9.43-1.39-.46-2.89-.95-4.28-1.42,0,0-.99,2.85-3.04,4.81h0Z"/>
  <path class="st2" d="M30.87,21.25c.48.88,1.54,1.06,2.45,1.04.13,0,.26,0,.39,0,.12,0-.04-.02.07.01.03,0,.06.02.09.03.04.01.04.01,0,0-.03-.01-.03-.01,0,0l.03.02s-.05-.04-.02,0c.02.02.04.04.06.07-.07-.08.02.04.04.07.07.11.13.22.21.32.31.41.75.7,1.22.9.52.23,1.11.43,1.69.39.34-.02.68-.29.66-.66-.02-.34-.29-.68-.66-.66-.08,0-.16,0-.24,0-.02,0-.04,0-.07,0-.08,0,.06,0,.06,0-.04.01-.13-.02-.17-.03-.22-.05-.43-.12-.64-.19-.12-.05.07.04-.04-.02-.05-.02-.1-.05-.15-.07-.1-.05-.2-.11-.3-.17-.04-.03-.08-.06-.12-.08-.06-.03.03.03.04.03-.02-.01-.04-.03-.05-.04-.03-.03-.07-.06-.1-.09-.01-.01-.03-.03-.04-.05-.07-.07.02.04.03.04-.05,0-.16-.25-.18-.29-.09-.14-.19-.28-.3-.4-.28-.28-.63-.39-1.02-.44-.36-.04-.74-.02-1.11-.04-.07,0,.07,0,.07,0,0,0-.08-.01-.09-.01-.05,0-.1-.02-.16-.03s-.1-.03-.16-.04c-.02,0-.04-.02-.07-.02-.08-.02.1.06.03.01-.05-.03-.1-.05-.14-.08-.02-.01-.04-.03-.06-.04-.07-.03.07.08.02.02-.03-.04-.08-.08-.12-.12.01.01.05.1.03.04-.01-.03-.05-.08-.06-.11-.17-.3-.61-.43-.9-.24-.31.2-.41.58-.24.9h0Z"/>
  <path class="st3" d="M33.8,19.33c-1.32,1.26-3.09,2.21-4.89,1.95,0,0,3.45,3.02,5.87,4.1,3.35-2.02,5.37-5.53,6.34-9.43-1.39-.46-2.89-.95-4.28-1.42,0,0-.99,2.85-3.04,4.81h0Z"/>
  <path class="st2" d="M38.57,4.89c-.24-.24-.64-.27-.95-.17-.27.09-.49.28-.68.48-.19.2-.38.42-.51.67,0,0,0,0,0,.01,0,.01-.02.02-.03.04-.25.36-.14.88.28,1.06.31.13.66.02.96-.12.47-.21.9-.58,1.08-1.08.11-.3.1-.65-.14-.89h0Z"/>
  <path class="st2" d="M39.85,3.71c-.29-.17-.66-.12-.9.12-.12.12-.18.27-.2.42-.01.1-.02.17.01.28.02.05.04.11.07.16,0,.01.01.02.02.03.04.07.09.13.15.17.06.05.13.09.2.11.01,0,.11.04.16.06.11.03.25.03.36,0,.23-.08.41-.25.47-.48.09-.33-.06-.68-.35-.86Z"/>
  <path class="st1" d="M44.44,9.47c-.08-.3-.31-.45-.58-.49.01-.01.02-.03.03-.04.22-.26.37-.65.18-.97-.18-.3-.51-.39-.83-.29-.2.06-.37.18-.52.32-.08-.1-.17-.18-.29-.27-.3-.22-.67-.3-1.03-.21-.31.08-.51.44-.42.74.09.27.23.49.42.66-.16.07-.31.16-.46.28-.31.24-.18.77.12.94.24.14.49.17.75.14.05.28.2.51.45.67.21.13.56.1.73-.09.14-.16.24-.32.31-.52.02-.05.04-.11.05-.17,0,0,.02,0,.02,0,.16.05.33.07.49.05.39-.03.69-.36.58-.76h0Z"/>
  <path class="st1" d="M40.05,9.82c-.09-.08-.2-.15-.33-.17-.05-.03-.1-.06-.16-.07-.08-.03-.16-.03-.24-.01-.08,0-.15.03-.22.07-.13.08-.24.21-.28.36-.04.16-.02.31.06.46,0,.01.01.02.02.03.03.05.07.1.11.14,0,0,0,0,0,0,0,0,0,0,0,.01.09.09.2.16.32.2.24.07.52.01.69-.18.11-.11.18-.27.18-.42,0-.15-.07-.32-.18-.42h0Z"/>
  <path class="st1" d="M45.28,6.41c-.02-.07-.07-.14-.12-.19-.05-.06-.12-.1-.19-.12-.07-.04-.15-.05-.23-.05-.05,0-.11.01-.16.02-.1.03-.19.08-.27.15-.03.04-.06.08-.09.12-.05.09-.08.19-.08.3v.09c0,.08.01.16.05.23.02.07.07.14.12.19.05.06.12.1.19.12.07.04.15.05.23.05.05,0,.11-.01.16-.02.1-.03.19-.08.27-.15.03-.04.06-.08.09-.12.05-.09.08-.19.08-.3v-.09c0-.08-.01-.16-.05-.23Z"/>
</g><g data-hm-layer-slot="glasses" data-hm-part-id="hm1-p-000057" data-hm-selection-slot="glasses" data-hm-source-group-id="glasses" data-hm-source-part-id="001" transform="translate(0, 0)">
  <g transform="scale(0.06667)">
    <circle cx="403.04" cy="554.18" r="52.35" fill="#FFFFFF" stroke="var(--hm-stroke, #000000)" stroke-width="25.51" stroke-linecap="round" stroke-linejoin="round"/>
    <circle cx="540.65" cy="562.65" r="52.35" fill="#FFFFFF" stroke="var(--hm-stroke, #000000)" stroke-width="25.51" stroke-linecap="round" stroke-linejoin="round"/>
    <path d="M456.45,560.76s13.46,7.62,31.5,1.23" fill="none" stroke="var(--hm-stroke, #000000)" stroke-width="25.51" stroke-linecap="round" stroke-linejoin="round"/>
  </g>
</g></svg>